<svg xmlns="http://www.w3.org/2000/svg" xmlns:bx="https://boxy-svg.com" viewBox="85.16 208.65 344 66.99">
  <defs>
    <g/>
    <clipPath id="0fa586b128">
      <rect x="0" width="250" y="0" height="78"/>
    </clipPath>
    <clipPath id="64de670387">
      <path d="M 124.070312 140.957031 L 133.058594 140.957031 L 133.058594 149.945312 L 124.070312 149.945312 Z M 124.070312 140.957031 " clip-rule="nonzero"/>
    </clipPath>
    <clipPath id="9db2b142ff">
      <path d="M 128.566406 140.957031 C 126.082031 140.957031 124.070312 142.96875 124.070312 145.453125 C 124.070312 147.933594 126.082031 149.945312 128.566406 149.945312 C 131.046875 149.945312 133.058594 147.933594 133.058594 145.453125 C 133.058594 142.96875 131.046875 140.957031 128.566406 140.957031 Z M 128.566406 140.957031 " clip-rule="nonzero"/>
    </clipPath>
    <clipPath id="e089ca3863">
      <path d="M 0.0703125 0.957031 L 9.058594 0.957031 L 9.058594 9.945312 L 0.0703125 9.945312 Z M 0.0703125 0.957031 " clip-rule="nonzero"/>
    </clipPath>
    <clipPath id="16c9f5f39c">
      <path d="M 4.566406 0.957031 C 2.082031 0.957031 0.0703125 2.96875 0.0703125 5.453125 C 0.0703125 7.933594 2.082031 9.945312 4.566406 9.945312 C 7.046875 9.945312 9.058594 7.933594 9.058594 5.453125 C 9.058594 2.96875 7.046875 0.957031 4.566406 0.957031 Z M 4.566406 0.957031 " clip-rule="nonzero"/>
    </clipPath>
    <clipPath id="6cbd66c0e8">
      <rect x="0" width="10" y="0" height="10"/>
    </clipPath>
    <clipPath id="0c8ba5e7f4">
      <rect x="0" width="105" y="0" height="78"/>
    </clipPath>
    <clipPath id="ab4cb6f6ba">
      <path d="M 159.90625 140.957031 L 168.894531 140.957031 L 168.894531 149.945312 L 159.90625 149.945312 Z M 159.90625 140.957031 " clip-rule="nonzero"/>
    </clipPath>
    <clipPath id="ffeb4966ca">
      <path d="M 164.402344 140.957031 C 161.917969 140.957031 159.90625 142.96875 159.90625 145.453125 C 159.90625 147.933594 161.917969 149.945312 164.402344 149.945312 C 166.882812 149.945312 168.894531 147.933594 168.894531 145.453125 C 168.894531 142.96875 166.882812 140.957031 164.402344 140.957031 Z M 164.402344 140.957031 " clip-rule="nonzero"/>
    </clipPath>
    <clipPath id="42f9813070">
      <path d="M 0.90625 0.957031 L 9.894531 0.957031 L 9.894531 9.945312 L 0.90625 9.945312 Z M 0.90625 0.957031 " clip-rule="nonzero"/>
    </clipPath>
    <clipPath id="faa143ec78">
      <path d="M 5.402344 0.957031 C 2.917969 0.957031 0.90625 2.96875 0.90625 5.453125 C 0.90625 7.933594 2.917969 9.945312 5.402344 9.945312 C 7.882812 9.945312 9.894531 7.933594 9.894531 5.453125 C 9.894531 2.96875 7.882812 0.957031 5.402344 0.957031 Z M 5.402344 0.957031 " clip-rule="nonzero"/>
    </clipPath>
    <clipPath id="a3aad74e70">
      <rect x="0" width="10" y="0" height="10"/>
    </clipPath>
    <clipPath id="2a8466c5aa">
      <path d="M 295.078125 183.269531 L 304.066406 183.269531 L 304.066406 192.257812 L 295.078125 192.257812 Z M 295.078125 183.269531 " clip-rule="nonzero"/>
    </clipPath>
    <clipPath id="2fc2d46734">
      <path d="M 299.574219 183.269531 C 297.089844 183.269531 295.078125 185.28125 295.078125 187.765625 C 295.078125 190.246094 297.089844 192.257812 299.574219 192.257812 C 302.054688 192.257812 304.066406 190.246094 304.066406 187.765625 C 304.066406 185.28125 302.054688 183.269531 299.574219 183.269531 Z M 299.574219 183.269531 " clip-rule="nonzero"/>
    </clipPath>
    <clipPath id="3601aaf83b">
      <path d="M 0.078125 0.269531 L 9.066406 0.269531 L 9.066406 9.257812 L 0.078125 9.257812 Z M 0.078125 0.269531 " clip-rule="nonzero"/>
    </clipPath>
    <clipPath id="7f618146a0">
      <path d="M 4.574219 0.269531 C 2.089844 0.269531 0.078125 2.28125 0.078125 4.765625 C 0.078125 7.246094 2.089844 9.257812 4.574219 9.257812 C 7.054688 9.257812 9.066406 7.246094 9.066406 4.765625 C 9.066406 2.28125 7.054688 0.269531 4.574219 0.269531 Z M 4.574219 0.269531 " clip-rule="nonzero"/>
    </clipPath>
    <clipPath id="eb3cc7d8ae">
      <rect x="0" width="10" y="0" height="10"/>
    </clipPath>
    <bx:guide x="133.134" y="149.989" angle="90"/>
    <bx:guide x="146.437" y="146.386" angle="0"/>
    <bx:guide x="73.744" y="128.151" angle="0"/>
    <bx:guide x="167.502" y="139.18" angle="0"/>
    <bx:guide x="131.194" y="141.952" angle="0"/>
    <bx:guide x="161.958" y="148.049" angle="0"/>
    <bx:guide x="145.605" y="140.288" angle="90"/>
    <bx:export>
      <bx:file format="png" href="#object-0" excluded="true"/>
      <bx:file format="svg" href="#object-0" excluded="true"/>
      <bx:file format="png" href="#object-0" path="Untitled 4.png"/>
      <bx:file format="svg" path="Untitled 2.svg" excluded="true"/>
      <bx:file format="png" path="Untitled 2.png" excluded="true"/>
      <bx:file format="png" path="Untitled 3.png" excluded="true"/>
      <bx:file format="svg" path="Untitled 3.svg"/>
    </bx:export>
    <bx:guide x="198.891" y="220.766" angle="90"/>
    <bx:guide x="216.664" y="214.526" angle="90"/>
    <bx:guide x="198.951" y="209.561" angle="0"/>
    <bx:guide x="202.525" y="211.229" angle="0"/>
    <bx:guide x="201.233" y="210.96" angle="0"/>
    <bx:guide x="225.829" y="214.027" angle="90"/>
    <bx:guide x="226.098" y="216.287" angle="90"/>
  </defs>
  <g id="object-0" transform="matrix(1, 0, 0, 1, 69.610871, 70.358224)">
    <g transform="matrix(1, 0, 0, 1, 114.000002, 148.000002)">
      <g clip-path="url(#0fa586b128)">
        <g fill="#b60000" fill-opacity="1">
          <g transform="translate(0.686496, 57.280814)">
            <g>
              <path d="M 12.484 0 L 8.18 0 L 3.875 0 L 7.383 -27.898 L 10.779 -54.873 L 11.093 -54.873 L 11.418 -54.873 L 19.297 -41.68 L 27.703 -27.562 L 32.195 -19.984 L 36.688 -12.406 L 34.219 -8.297 L 31.75 -4.187 L 28.094 -10.273 L 24.438 -16.359 L 20.367 -23.289 L 16.297 -30.219 L 14.391 -15.109 L 12.484 0 Z M 38.359 -15.156 L 35.891 -19.305 L 33.422 -23.453 L 43.164 -39.625 L 52.297 -54.873 L 52.633 -54.873 L 53.017 -54.873 L 56.336 -27.898 L 59.766 0 L 55.461 0 L 51.156 0 L 49.328 -15.148 L 47.5 -30.297 L 43.273 -23.328 L 39.047 -16.359 L 38.703 -15.758 L 38.359 -15.156 Z M 38.359 -15.156" style="fill: rgb(255, 191, 0);"/>
            </g>
          </g>
        </g>
        <g fill="#b60000" fill-opacity="1">
          <g transform="translate(64.09002, 57.280814)">
            <g>
              <path d="M 3.875 0 L 3.875 -20.062 L 3.875 -40.125 L 7.305 -40.125 L 10.734 -40.125 L 10.734 -20.062 L 10.734 0 L 7.305 0 Z" style="fill: rgb(255, 191, 0);"/>
            </g>
          </g>
        </g>
        <g fill="#b60000" fill-opacity="1">
          <g transform="translate(78.551804, 57.280814)">
            <g>
              <path d="M 19.266 -22.906 C 19.822 -22.682 20.404 -22.445 21.011 -22.198 C 21.618 -21.95 22.25 -21.691 22.906 -21.422 C 23.566 -21.156 24.208 -20.849 24.831 -20.5 C 25.453 -20.15 26.057 -19.76 26.641 -19.328 C 27.223 -18.9 27.752 -18.408 28.229 -17.851 C 28.705 -17.294 29.129 -16.672 29.5 -15.984 C 29.869 -15.301 30.146 -14.528 30.332 -13.666 C 30.517 -12.805 30.609 -11.854 30.609 -10.812 C 30.609 -9.16 30.326 -7.677 29.761 -6.362 C 29.195 -5.047 28.348 -3.9 27.219 -2.922 C 26.088 -1.947 24.688 -1.217 23.018 -0.73 C 21.349 -0.243 19.41 0 17.203 0 C 13.244 0 10.167 -0.666 7.972 -1.999 C 5.776 -3.332 4.463 -5.332 4.031 -8 L 7.383 -8.984 L 10.734 -9.969 C 10.734 -9.691 10.766 -9.423 10.828 -9.163 C 10.891 -8.902 10.984 -8.65 11.109 -8.406 C 11.238 -8.166 11.449 -7.951 11.741 -7.761 C 12.033 -7.571 12.406 -7.406 12.859 -7.266 C 13.316 -7.125 13.907 -7.02 14.631 -6.949 C 15.355 -6.879 16.213 -6.844 17.203 -6.844 C 18.219 -6.844 19.091 -6.895 19.82 -6.996 C 20.549 -7.098 21.135 -7.25 21.578 -7.453 C 22.02 -7.656 22.383 -7.888 22.667 -8.148 C 22.951 -8.408 23.156 -8.697 23.281 -9.016 C 23.41 -9.332 23.508 -9.641 23.573 -9.94 C 23.639 -10.24 23.672 -10.531 23.672 -10.812 C 23.672 -11.395 23.611 -11.9 23.491 -12.33 C 23.371 -12.76 23.191 -13.113 22.953 -13.391 C 22.713 -13.672 22.405 -13.936 22.03 -14.183 C 21.655 -14.43 21.213 -14.66 20.703 -14.875 C 20.197 -15.094 19.608 -15.34 18.937 -15.613 C 18.265 -15.887 17.51 -16.187 16.672 -16.516 L 15.875 -16.859 L 15.078 -17.203 C 14.516 -17.432 13.932 -17.67 13.327 -17.917 C 12.723 -18.165 12.098 -18.422 11.453 -18.687 C 10.807 -18.953 10.176 -19.256 9.561 -19.597 C 8.946 -19.937 8.348 -20.316 7.766 -20.734 C 7.182 -21.156 6.651 -21.643 6.175 -22.194 C 5.698 -22.746 5.275 -23.363 4.906 -24.047 C 4.541 -24.734 4.268 -25.51 4.085 -26.374 C 3.903 -27.238 3.813 -28.191 3.813 -29.234 C 3.813 -30.885 4.094 -32.37 4.656 -33.69 C 5.219 -35.011 6.063 -36.166 7.188 -37.156 C 8.316 -38.145 9.723 -38.887 11.405 -39.382 C 13.088 -39.877 15.047 -40.125 17.281 -40.125 C 21.213 -40.125 24.27 -39.465 26.452 -38.145 C 28.634 -36.824 29.941 -34.844 30.375 -32.203 L 27.023 -31.172 L 23.672 -30.141 C 23.672 -30.473 23.639 -30.778 23.573 -31.057 C 23.508 -31.336 23.41 -31.588 23.281 -31.812 C 23.156 -32.041 22.951 -32.244 22.667 -32.421 C 22.383 -32.599 22.02 -32.75 21.578 -32.875 C 21.135 -33.004 20.555 -33.102 19.838 -33.167 C 19.122 -33.232 18.27 -33.266 17.281 -33.266 C 16.266 -33.266 15.389 -33.211 14.651 -33.102 C 13.914 -32.992 13.316 -32.828 12.859 -32.609 C 12.406 -32.394 12.033 -32.157 11.741 -31.897 C 11.449 -31.637 11.238 -31.353 11.109 -31.047 C 10.984 -30.744 10.891 -30.441 10.828 -30.139 C 10.766 -29.837 10.734 -29.535 10.734 -29.234 C 10.734 -28.676 10.791 -28.185 10.905 -27.76 C 11.02 -27.336 11.191 -26.978 11.422 -26.687 C 11.65 -26.394 11.951 -26.125 12.324 -25.878 C 12.696 -25.631 13.141 -25.406 13.656 -25.203 C 14.176 -25 14.77 -24.758 15.437 -24.477 C 16.104 -24.195 16.844 -23.875 17.656 -23.516 L 18.461 -23.211 Z M 19.266 -22.906" style="fill: rgb(255, 191, 0);"/>
            </g>
          </g>
        </g>
        <g fill="#b60000" fill-opacity="1">
          <g transform="translate(112.72729, 57.280814)">
            <g>
              <path d="M 19.266 -22.906 C 19.822 -22.682 20.404 -22.445 21.011 -22.198 C 21.618 -21.95 22.25 -21.691 22.906 -21.422 C 23.566 -21.156 24.208 -20.849 24.831 -20.5 C 25.453 -20.15 26.057 -19.76 26.641 -19.328 C 27.223 -18.9 27.752 -18.408 28.229 -17.851 C 28.705 -17.294 29.129 -16.672 29.5 -15.984 C 29.869 -15.301 30.146 -14.528 30.332 -13.666 C 30.517 -12.805 30.609 -11.854 30.609 -10.812 C 30.609 -9.16 30.326 -7.677 29.761 -6.362 C 29.195 -5.047 28.348 -3.9 27.219 -2.922 C 26.088 -1.947 24.688 -1.217 23.018 -0.73 C 21.349 -0.243 19.41 0 17.203 0 C 13.244 0 10.167 -0.666 7.972 -1.999 C 5.776 -3.332 4.463 -5.332 4.031 -8 L 7.383 -8.984 L 10.734 -9.969 C 10.734 -9.691 10.766 -9.423 10.828 -9.163 C 10.891 -8.902 10.984 -8.65 11.109 -8.406 C 11.238 -8.166 11.449 -7.951 11.741 -7.761 C 12.033 -7.571 12.406 -7.406 12.859 -7.266 C 13.316 -7.125 13.907 -7.02 14.631 -6.949 C 15.355 -6.879 16.213 -6.844 17.203 -6.844 C 18.219 -6.844 19.091 -6.895 19.82 -6.996 C 20.549 -7.098 21.135 -7.25 21.578 -7.453 C 22.02 -7.656 22.383 -7.888 22.667 -8.148 C 22.951 -8.408 23.156 -8.697 23.281 -9.016 C 23.41 -9.332 23.508 -9.641 23.573 -9.94 C 23.639 -10.24 23.672 -10.531 23.672 -10.812 C 23.672 -11.395 23.611 -11.9 23.491 -12.33 C 23.371 -12.76 23.191 -13.113 22.953 -13.391 C 22.713 -13.672 22.405 -13.936 22.03 -14.183 C 21.655 -14.43 21.213 -14.66 20.703 -14.875 C 20.197 -15.094 19.608 -15.34 18.937 -15.613 C 18.265 -15.887 17.51 -16.187 16.672 -16.516 L 15.875 -16.859 L 15.078 -17.203 C 14.516 -17.432 13.932 -17.67 13.327 -17.917 C 12.723 -18.165 12.098 -18.422 11.453 -18.687 C 10.807 -18.953 10.176 -19.256 9.561 -19.597 C 8.946 -19.937 8.348 -20.316 7.766 -20.734 C 7.182 -21.156 6.651 -21.643 6.175 -22.194 C 5.698 -22.746 5.275 -23.363 4.906 -24.047 C 4.541 -24.734 4.268 -25.51 4.085 -26.374 C 3.903 -27.238 3.813 -28.191 3.813 -29.234 C 3.813 -30.885 4.094 -32.37 4.656 -33.69 C 5.219 -35.011 6.063 -36.166 7.188 -37.156 C 8.316 -38.145 9.723 -38.887 11.405 -39.382 C 13.088 -39.877 15.047 -40.125 17.281 -40.125 C 21.213 -40.125 24.27 -39.465 26.452 -38.145 C 28.634 -36.824 29.941 -34.844 30.375 -32.203 L 27.023 -31.172 L 23.672 -30.141 C 23.672 -30.473 23.639 -30.778 23.573 -31.057 C 23.508 -31.336 23.41 -31.588 23.281 -31.812 C 23.156 -32.041 22.951 -32.244 22.667 -32.421 C 22.383 -32.599 22.02 -32.75 21.578 -32.875 C 21.135 -33.004 20.555 -33.102 19.838 -33.167 C 19.122 -33.232 18.27 -33.266 17.281 -33.266 C 16.266 -33.266 15.389 -33.211 14.651 -33.102 C 13.914 -32.992 13.316 -32.828 12.859 -32.609 C 12.406 -32.394 12.033 -32.157 11.741 -31.897 C 11.449 -31.637 11.238 -31.353 11.109 -31.047 C 10.984 -30.744 10.891 -30.441 10.828 -30.139 C 10.766 -29.837 10.734 -29.535 10.734 -29.234 C 10.734 -28.676 10.791 -28.185 10.905 -27.76 C 11.02 -27.336 11.191 -26.978 11.422 -26.687 C 11.65 -26.394 11.951 -26.125 12.324 -25.878 C 12.696 -25.631 13.141 -25.406 13.656 -25.203 C 14.176 -25 14.77 -24.758 15.437 -24.477 C 16.104 -24.195 16.844 -23.875 17.656 -23.516 L 18.461 -23.211 Z M 19.266 -22.906" style="fill: rgb(255, 191, 0);"/>
            </g>
          </g>
        </g>
        <g fill="#b60000" fill-opacity="1">
          <g transform="translate(146.902776, 57.280814)">
            <g>
              <path d="M 3.875 0 L 3.875 -20.062 L 3.875 -40.125 L 7.305 -40.125 L 10.734 -40.125 L 10.734 -20.062 L 10.734 0 L 7.305 0 Z" style="fill: rgb(255, 191, 0);"/>
            </g>
          </g>
        </g>
        <g fill="#b60000" fill-opacity="1">
          <g transform="translate(161.36456, 57.280814)">
            <g>
              <path d="M 23.984 -40.125 C 25.832 -40.125 27.596 -39.899 29.275 -39.449 C 30.955 -38.998 32.551 -38.322 34.063 -37.422 C 35.572 -36.52 36.93 -35.462 38.135 -34.249 C 39.341 -33.035 40.395 -31.666 41.297 -30.141 C 42.197 -28.619 42.873 -27.015 43.324 -25.327 C 43.774 -23.64 44 -21.869 44 -20.016 C 44 -18.645 43.869 -17.312 43.608 -16.019 C 43.348 -14.725 42.957 -13.469 42.438 -12.25 C 41.916 -11.035 41.296 -9.896 40.577 -8.831 C 39.858 -7.766 39.041 -6.775 38.125 -5.859 C 37.213 -4.947 36.225 -4.133 35.16 -3.417 C 34.095 -2.7 32.953 -2.082 31.734 -1.563 C 30.52 -1.041 29.267 -0.65 27.975 -0.39 C 26.684 -0.13 25.354 0 23.984 0 C 22.129 0 20.356 -0.225 18.667 -0.675 C 16.977 -1.125 15.369 -1.801 13.844 -2.703 C 12.322 -3.604 10.956 -4.659 9.745 -5.87 C 8.534 -7.081 7.479 -8.447 6.578 -9.969 C 5.676 -11.494 5 -13.094 4.55 -14.768 C 4.1 -16.442 3.875 -18.191 3.875 -20.016 C 3.875 -21.869 4.1 -23.64 4.55 -25.327 C 5 -27.015 5.676 -28.619 6.578 -30.141 C 7.479 -31.666 8.534 -33.035 9.745 -34.249 C 10.956 -35.462 12.322 -36.52 13.844 -37.422 C 15.369 -38.322 16.977 -38.998 18.667 -39.449 C 20.356 -39.899 22.129 -40.125 23.984 -40.125 Z M 37.156 -20.016 C 37.156 -21.234 37.006 -22.395 36.706 -23.5 C 36.406 -24.604 35.957 -25.65 35.359 -26.641 C 34.766 -27.629 34.072 -28.52 33.28 -29.312 C 32.488 -30.104 31.598 -30.797 30.609 -31.391 C 29.619 -31.988 28.572 -32.437 27.468 -32.737 C 26.364 -33.037 25.203 -33.187 23.984 -33.187 C 22.791 -33.187 21.645 -33.037 20.545 -32.737 C 19.446 -32.437 18.395 -31.988 17.391 -31.391 C 16.391 -30.797 15.49 -30.104 14.69 -29.312 C 13.891 -28.52 13.191 -27.629 12.594 -26.641 C 12 -25.65 11.555 -24.604 11.258 -23.5 C 10.961 -22.396 10.812 -21.234 10.812 -20.016 C 10.812 -18.797 10.961 -17.635 11.258 -16.53 C 11.555 -15.426 12 -14.379 12.594 -13.391 C 13.191 -12.4 13.891 -11.508 14.69 -10.713 C 15.49 -9.919 16.391 -9.223 17.391 -8.625 C 18.395 -8.031 19.446 -7.586 20.545 -7.289 C 21.645 -6.992 22.791 -6.844 23.984 -6.844 C 25.203 -6.844 26.364 -6.992 27.468 -7.289 C 28.572 -7.586 29.619 -8.031 30.609 -8.625 C 31.598 -9.223 32.488 -9.919 33.28 -10.713 C 34.072 -11.508 34.766 -12.4 35.359 -13.391 C 35.957 -14.379 36.406 -15.426 36.706 -16.53 C 37.006 -17.635 37.156 -18.797 37.156 -20.016 Z M 37.156 -20.016" style="fill: rgb(255, 191, 0);"/>
            </g>
          </g>
        </g>
        <g fill="#b60000" fill-opacity="1">
          <g transform="translate(208.936246, 57.280814)">
            <g>
              <path d="M 36.609 0 L 33.188 0 L 29.766 0 L 29.766 -10.922 L 29.766 -21.844 C 29.766 -22.76 29.664 -23.666 29.461 -24.562 C 29.258 -25.458 28.953 -26.344 28.547 -27.219 C 28.141 -28.094 27.661 -28.892 27.109 -29.613 C 26.557 -30.334 25.932 -30.978 25.234 -31.547 C 24.535 -32.119 23.777 -32.549 22.96 -32.835 C 22.143 -33.122 21.266 -33.266 20.328 -33.266 C 19.438 -33.266 18.586 -33.122 17.773 -32.835 C 16.961 -32.549 16.188 -32.119 15.453 -31.547 C 14.719 -30.979 14.063 -30.343 13.484 -29.64 C 12.906 -28.937 12.406 -28.166 11.984 -27.328 C 11.566 -26.488 11.254 -25.645 11.046 -24.796 C 10.838 -23.947 10.734 -23.094 10.734 -22.234 L 10.734 -11.117 L 10.734 0 L 7.305 0 L 3.875 0 L 3.875 -11.117 L 3.875 -22.234 C 3.875 -23.297 3.974 -24.356 4.171 -25.414 C 4.369 -26.471 4.666 -27.525 5.063 -28.578 C 5.457 -29.635 5.938 -30.643 6.503 -31.601 C 7.068 -32.56 7.719 -33.469 8.453 -34.328 C 9.188 -35.191 9.988 -35.973 10.855 -36.671 C 11.723 -37.369 12.656 -37.984 13.656 -38.516 C 14.66 -39.051 15.719 -39.453 16.831 -39.722 C 17.943 -39.99 19.109 -40.125 20.328 -40.125 C 21.547 -40.125 22.711 -39.99 23.82 -39.722 C 24.93 -39.453 25.984 -39.051 26.984 -38.516 C 27.988 -37.984 28.919 -37.367 29.776 -36.664 C 30.633 -35.961 31.416 -35.172 32.125 -34.297 C 32.832 -33.422 33.461 -32.496 34.011 -31.52 C 34.561 -30.543 35.031 -29.516 35.422 -28.437 C 35.816 -27.359 36.113 -26.271 36.312 -25.171 C 36.51 -24.072 36.609 -22.963 36.609 -21.844 L 36.609 -10.922 Z M 36.609 0" style="fill: rgb(255, 191, 0);"/>
            </g>
          </g>
        </g>
      </g>
    </g>
    <g>
      <g clip-path="url(#64de670387)" transform="matrix(1, 0, 0, 1, -0.142312, -2.669031)">
        <g clip-path="url(#9db2b142ff)">
          <g transform="matrix(1, 0, 0, 1, 124, 140)">
            <g clip-path="url(#6cbd66c0e8)">
              <g clip-path="url(#e089ca3863)">
                <g clip-path="url(#16c9f5f39c)">
                  <path d="M 0.07 0.957 L 9.059 0.957 L 9.059 3.204 L 9.483 6.32 L 5.578 6.837 C 5.36 7.989 7.981 8.801 8.39 8.686 L 6.812 9.945 L 0.07 9.945 Z M 8.39 8.686 L 8.442 8.644 C 8.438 8.663 8.42 8.677 8.39 8.686 Z M 6.907 3.414 C 6.488 3.414 6.148 3.881 6.148 4.458 C 6.148 5.034 6.488 5.502 6.907 5.502 C 7.327 5.502 7.666 5.034 7.666 4.458 C 7.666 3.881 7.327 3.414 6.907 3.414 Z" fill-opacity="1" fill-rule="nonzero" style="fill: rgb(255, 191, 0);"/>
                </g>
              </g>
            </g>
          </g>
        </g>
      </g>
      <g clip-path="url(#ab4cb6f6ba)" transform="matrix(1, 0, 0, 1, 0.607469, -2.669031)">
        <g clip-path="url(#ffeb4966ca)">
          <g transform="matrix(1, 0, 0, 1, 159, 140)">
            <g clip-path="url(#a3aad74e70)">
              <g clip-path="url(#42f9813070)">
                <g clip-path="url(#faa143ec78)">
                  <path d="M 0.906 0.957 L 9.895 0.957 L 9.895 9.945 L 0.906 9.945 L 1.257 8.766 C 2.349 8.588 4.524 7.691 4.185 6.76 L 0.906 6.338 Z M 1.257 8.766 C 0.55 8.881 0.297 8.694 1.48 8.018 Z M 2.9 3.248 C 2.461 3.248 2.105 3.776 2.105 4.427 C 2.105 5.078 2.461 5.606 2.9 5.606 C 3.339 5.606 3.695 5.078 3.695 4.427 C 3.695 3.776 3.339 3.248 2.9 3.248 Z" fill-opacity="1" fill-rule="nonzero" style="fill: rgb(255, 191, 0);"/>
                </g>
              </g>
            </g>
          </g>
        </g>
      </g>
    </g>
    <g transform="matrix(1, 0, 0, 1, 11, 148.000002)">
      <g clip-path="url(#0c8ba5e7f4)">
        <g fill="#000000" fill-opacity="1">
          <g transform="translate(0.672719, 57.280814)">
            <g>
              <path d="M 44.766 -14.922 L 48.148 -11.531 L 51.531 -8.141 C 50.266 -6.9 48.895 -5.785 47.418 -4.795 C 45.941 -3.806 44.359 -2.941 42.672 -2.203 C 40.984 -1.469 39.235 -0.918 37.425 -0.551 C 35.615 -0.184 33.744 0 31.813 0 C 29.885 0 28.018 -0.181 26.21 -0.542 C 24.403 -0.904 22.656 -1.447 20.969 -2.172 C 19.281 -2.895 17.695 -3.758 16.211 -4.761 C 14.727 -5.764 13.344 -6.906 12.063 -8.187 C 10.781 -9.469 9.639 -10.848 8.636 -12.324 C 7.633 -13.801 6.77 -15.375 6.047 -17.047 C 5.322 -18.723 4.779 -20.462 4.417 -22.264 C 4.056 -24.066 3.875 -25.932 3.875 -27.859 C 3.875 -29.785 4.056 -31.652 4.417 -33.46 C 4.779 -35.268 5.322 -37.016 6.047 -38.703 C 6.77 -40.391 7.633 -41.977 8.636 -43.461 C 9.639 -44.945 10.781 -46.328 12.063 -47.609 C 13.344 -48.891 14.727 -50.032 16.211 -51.035 C 17.695 -52.037 19.281 -52.9 20.969 -53.625 C 22.656 -54.348 24.403 -54.891 26.21 -55.253 C 28.018 -55.615 29.885 -55.797 31.813 -55.797 C 33.744 -55.797 35.617 -55.613 37.432 -55.246 C 39.247 -54.879 41.004 -54.328 42.703 -53.594 C 44.406 -52.859 45.993 -51.99 47.464 -50.987 C 48.936 -49.984 50.291 -48.848 51.531 -47.578 L 48.148 -44.187 L 44.766 -40.797 C 43.926 -41.635 43.021 -42.383 42.049 -43.041 C 41.078 -43.7 40.041 -44.27 38.938 -44.75 C 37.832 -45.234 36.686 -45.598 35.498 -45.84 C 34.311 -46.082 33.082 -46.203 31.813 -46.203 C 30.141 -46.203 28.537 -45.997 27.003 -45.585 C 25.469 -45.174 24.004 -44.557 22.609 -43.734 C 21.213 -42.91 19.959 -41.946 18.847 -40.842 C 17.735 -39.738 16.766 -38.494 15.938 -37.109 C 15.113 -35.729 14.496 -34.268 14.085 -32.726 C 13.674 -31.185 13.469 -29.562 13.469 -27.859 C 13.469 -26.187 13.674 -24.587 14.085 -23.058 C 14.496 -21.529 15.113 -20.072 15.938 -18.687 C 16.766 -17.307 17.735 -16.064 18.847 -14.96 C 19.959 -13.856 21.213 -12.891 22.609 -12.062 C 24.004 -11.238 25.469 -10.621 27.003 -10.21 C 28.537 -9.799 30.141 -9.594 31.813 -9.594 C 33.082 -9.594 34.311 -9.713 35.498 -9.952 C 36.686 -10.191 37.832 -10.551 38.938 -11.031 C 40.041 -11.516 41.078 -12.082 42.049 -12.73 C 43.021 -13.379 43.926 -14.109 44.766 -14.922 Z M 36.156 -27.859 C 36.156 -28.494 36.048 -29.078 35.832 -29.612 C 35.615 -30.145 35.291 -30.629 34.859 -31.062 C 34.432 -31.494 33.959 -31.818 33.441 -32.035 C 32.923 -32.251 32.359 -32.359 31.75 -32.359 C 31.141 -32.359 30.571 -32.251 30.042 -32.035 C 29.514 -31.818 29.025 -31.494 28.578 -31.062 C 28.135 -30.629 27.803 -30.145 27.582 -29.612 C 27.36 -29.078 27.25 -28.494 27.25 -27.859 C 27.25 -27.25 27.36 -26.685 27.582 -26.164 C 27.803 -25.643 28.135 -25.166 28.578 -24.734 C 29.025 -24.307 29.514 -23.986 30.042 -23.773 C 30.571 -23.56 31.141 -23.453 31.75 -23.453 C 32.359 -23.453 32.923 -23.56 33.441 -23.773 C 33.959 -23.986 34.432 -24.307 34.859 -24.734 C 35.291 -25.166 35.615 -25.643 35.832 -26.164 C 36.048 -26.685 36.156 -27.25 36.156 -27.859 Z M 36.156 -27.859" style="fill: rgb(255, 255, 255);"/>
            </g>
          </g>
        </g>
        <g fill="#000000" fill-opacity="1">
          <g transform="translate(56.084218, 57.280814)">
            <g>
              <path d="M 23.984 -40.125 C 25.832 -40.125 27.596 -39.899 29.275 -39.449 C 30.955 -38.998 32.551 -38.322 34.063 -37.422 C 35.572 -36.52 36.93 -35.462 38.135 -34.249 C 39.341 -33.035 40.395 -31.666 41.297 -30.141 C 42.197 -28.619 42.873 -27.015 43.324 -25.327 C 43.774 -23.64 44 -21.869 44 -20.016 C 44 -18.645 43.869 -17.312 43.608 -16.019 C 43.348 -14.725 42.957 -13.469 42.438 -12.25 C 41.916 -11.035 41.296 -9.896 40.577 -8.831 C 39.858 -7.766 39.041 -6.775 38.125 -5.859 C 37.213 -4.947 36.225 -4.133 35.16 -3.417 C 34.095 -2.7 32.953 -2.082 31.734 -1.563 C 30.52 -1.041 29.267 -0.65 27.975 -0.39 C 26.684 -0.13 25.354 0 23.984 0 C 22.129 0 20.356 -0.225 18.667 -0.675 C 16.977 -1.125 15.369 -1.801 13.844 -2.703 C 12.322 -3.604 10.956 -4.659 9.745 -5.87 C 8.534 -7.081 7.479 -8.447 6.578 -9.969 C 5.676 -11.494 5 -13.094 4.55 -14.768 C 4.1 -16.442 3.875 -18.191 3.875 -20.016 C 3.875 -21.869 4.1 -23.64 4.55 -25.327 C 5 -27.015 5.676 -28.619 6.578 -30.141 C 7.479 -31.666 8.534 -33.035 9.745 -34.249 C 10.956 -35.462 12.322 -36.52 13.844 -37.422 C 15.369 -38.322 16.977 -38.998 18.667 -39.449 C 20.356 -39.899 22.129 -40.125 23.984 -40.125 Z M 37.156 -20.016 C 37.156 -21.234 37.006 -22.395 36.706 -23.5 C 36.406 -24.604 35.957 -25.65 35.359 -26.641 C 34.766 -27.629 34.072 -28.52 33.28 -29.312 C 32.488 -30.104 31.598 -30.797 30.609 -31.391 C 29.619 -31.988 28.572 -32.437 27.468 -32.737 C 26.364 -33.037 25.203 -33.187 23.984 -33.187 C 22.791 -33.187 21.645 -33.037 20.545 -32.737 C 19.446 -32.437 18.395 -31.988 17.391 -31.391 C 16.391 -30.797 15.49 -30.104 14.69 -29.312 C 13.891 -28.52 13.191 -27.629 12.594 -26.641 C 12 -25.65 11.555 -24.604 11.258 -23.5 C 10.961 -22.396 10.812 -21.234 10.812 -20.016 C 10.812 -18.797 10.961 -17.635 11.258 -16.53 C 11.555 -15.426 12 -14.379 12.594 -13.391 C 13.191 -12.4 13.891 -11.508 14.69 -10.713 C 15.49 -9.919 16.391 -9.223 17.391 -8.625 C 18.395 -8.031 19.446 -7.586 20.545 -7.289 C 21.645 -6.992 22.791 -6.844 23.984 -6.844 C 25.203 -6.844 26.364 -6.992 27.468 -7.289 C 28.572 -7.586 29.619 -8.031 30.609 -8.625 C 31.598 -9.223 32.488 -9.919 33.28 -10.713 C 34.072 -11.508 34.766 -12.4 35.359 -13.391 C 35.957 -14.379 36.406 -15.426 36.706 -16.53 C 37.006 -17.635 37.156 -18.797 37.156 -20.016 Z M 37.156 -20.016" style="fill: rgb(255, 255, 255);"/>
            </g>
          </g>
        </g>
      </g>
    </g>
    <g clip-path="url(#2a8466c5aa)" transform="matrix(1, 0, 0, 1, 0, -2)">
      <g clip-path="url(#2fc2d46734)">
        <g transform="matrix(1, 0, 0, 1, 295, 183)">
          <g clip-path="url(#eb3cc7d8ae)">
            <g clip-path="url(#3601aaf83b)">
              <g clip-path="url(#7f618146a0)">
                <path d="M 0.078 0.27 L 4.572 0.27 L 9.066 0.27 L 9.066 4.764 L 9.066 9.258 L 4.572 9.258 L 0.078 9.258 L 0.078 4.764 Z M 0.078 0.27" fill-opacity="1" fill-rule="nonzero" style="fill: rgb(255, 191, 0);"/>
              </g>
            </g>
          </g>
        </g>
      </g>
    </g>
  </g>
</svg>